<?xml version="1.0" standalone="no"?>
<!DOCTYPE svg PUBLIC "-//W3C//DTD SVG 20010904//EN"
 "http://www.w3.org/TR/2001/REC-SVG-20010904/DTD/svg10.dtd">
<svg version="1.0" xmlns="http://www.w3.org/2000/svg"
 width="500.000000pt" height="500.000000pt" viewBox="0 0 500.000000 500.000000"
 preserveAspectRatio="xMidYMid meet">
<metadata>
Created by potrace 1.11, written by Peter Selinger 2001-2013
</metadata>
<g transform="translate(0.000000,500.000000) scale(0.100000,-0.100000)"
fill="#000000" stroke="none">
<path d="M2290 4639 c-25 -3 -74 -9 -110 -13 -36 -4 -72 -9 -80 -11 -8 -2 -28
-7 -45 -10 -65 -13 -82 -17 -139 -31 -282 -73 -616 -251 -858 -459 -305 -261
-555 -642 -662 -1010 -14 -49 -30 -103 -35 -120 -8 -26 -23 -106 -22 -120 0
-2 -4 -19 -9 -35 -23 -81 -35 -481 -18 -625 48 -420 193 -769 458 -1108 74
-96 211 -241 300 -318 76 -67 273 -204 345 -241 215 -110 341 -160 416 -166
48 -4 59 -1 85 21 l29 25 2 236 c1 130 -2 234 -6 232 -4 -3 -41 -8 -82 -12
-188 -19 -363 4 -471 63 -88 48 -139 112 -193 243 -28 68 -89 165 -134 214
-14 15 -52 46 -83 67 -31 21 -66 53 -78 70 -21 29 -21 32 -6 47 12 13 34 17
84 16 121 -1 248 -86 341 -229 63 -98 129 -161 208 -197 57 -27 78 -31 147
-32 101 0 162 9 230 35 52 19 54 21 60 65 8 61 42 139 87 200 l37 51 -101 16
c-173 27 -237 45 -364 103 -195 88 -327 211 -406 377 -36 75 -82 212 -92 270
-3 17 -8 39 -10 47 -7 27 -18 153 -19 235 -2 117 11 220 40 308 29 88 101 220
146 269 37 39 39 44 24 86 -45 127 -41 309 10 472 23 71 27 74 87 73 95 -2
299 -82 459 -181 49 -29 92 -51 97 -48 8 5 104 27 183 42 147 27 345 35 528
21 122 -10 149 -14 272 -42 l102 -22 81 50 c193 122 441 208 506 176 19 -10
54 -117 72 -222 15 -90 8 -205 -19 -303 l-17 -65 25 -27 c70 -75 143 -218 173
-337 39 -151 26 -449 -26 -623 -11 -37 -24 -76 -29 -87 -4 -11 -20 -46 -33
-77 -100 -227 -339 -400 -652 -472 -60 -14 -110 -23 -177 -31 l-57 -7 38 -47
c42 -50 60 -88 86 -171 15 -47 18 -110 21 -425 1 -203 3 -380 3 -393 1 -13 14
-37 30 -53 39 -39 93 -39 200 1 444 163 828 480 1091 900 72 115 142 257 190
383 42 112 95 309 105 392 4 28 8 57 10 65 10 39 19 178 19 305 0 131 -11 312
-19 326 -2 3 -7 30 -10 60 -3 30 -10 70 -15 89 -63 248 -102 356 -192 534 -47
90 -187 313 -220 347 -7 8 -31 37 -53 64 -64 81 -211 224 -324 315 -191 154
-586 355 -759 386 -14 3 -29 7 -32 9 -14 8 -187 44 -243 50 -32 4 -68 9 -80
11 -35 9 -397 11 -447 3z"/>
</g>
</svg>
